# xmcd
#
# Track frame offsets:
#	150
#	27628
#	36707
#	47433
#	59486
#	68646
#	77159
#	88944
#	105224
#	113434
#	122298
#	130685
#	148013
#	163457
#	173901
#	188154
#	197550
#	207978
#	219473
#	229457
#	240085
#	249256
#	260392
#	271900
#	283464
#	295210
#	304869
#
# Disc length: 4386
#
# Revision: 1
# Processed by: cddbd v1.5.1PL0 Copyright (c) Steve Scherf et al.
# Submitted via: ExactAudioCopy v0.95a3
# Normalized: r0:TDELIM( - )
#
DISCID=8f11201b
DTITLE=Various Artist - 100% hits Rock-N-Roll Vol.1
DYEAR=2001
DGENRE=Rock and Roll
TTITLE0=Jive Bunny - Jive Bunny Medley
TTITLE1=Little Richard - Long Tall Sally
TTITLE2=Elvis "The King" Presley - Jailhouse Rock
TTITLE3=The Beatles - Roll Over Beethoven
TTITLE4=Creedence - Ooby Dooby
TTITLE5=Ray Charles and Stray Cats - Hit The Road Jack
TTITLE6=Stray Cats - Rock This Town
TTITLE7=James Intveld - King Cry-Baby
TTITLE8=Jerry Lee Lewis - Great Balls Of Fire
TTITLE9=Elvis "The King" Presley - Blue Suede Shoes
TTITLE10=Eddie Cochran - Summertime Blues
TTITLE11=Sweet - Ballroom Blitz
TTITLE12=Mungo Jerry - In The Summertime
TTITLE13=Sam The Sham - Wooly Bully
TTITLE14=Status Quo - Carol
TTITLE15=Creedence - Travelin' Band
TTITLE16=Little Richard - Tutti Frutti
TTITLE17=Pat Boone - Speedy Gonzales
TTITLE18=Los Lobos - La Bamba
TTITLE19=Del Shanon - Runaway
TTITLE20=The Searchers - Love Potion No.9
TTITLE21=The Beatles - Rock and Roll Music
TTITLE22=Chuck Berry - Jonny B. Goode
TTITLE23=Gene Vincent - Be-Bop-A-Lula
TTITLE24=Danny and The Juniors - At The Hop
TTITLE25=Bill Haley and His Comets - Rock Around The Clock
TTITLE26=Jive Bunny - That's What I Like
EXTD=
EXTT0=
EXTT1=
EXTT2=
EXTT3=
EXTT4=
EXTT5=
EXTT6=
EXTT7=
EXTT8=
EXTT9=
EXTT10=
EXTT11=
EXTT12=
EXTT13=
EXTT14=
EXTT15=
EXTT16=
EXTT17=
EXTT18=
EXTT19=
EXTT20=
EXTT21=
EXTT22=
EXTT23=
EXTT24=
EXTT25=
EXTT26=
PLAYORDER=
